<svg width="900" height="900" viewBox="0 0 900 900" fill="none" xmlns="http://www.w3.org/2000/svg">
<path d="M0 0H900V900H0V0Z" fill="#FFFCF5"/>
<mask id="path-2-outside-1_25_185" maskUnits="userSpaceOnUse" x="252" y="165" width="391" height="615" fill="black">
<rect fill="white" x="252" y="165" width="391" height="615"/>
<path d="M406 581.4C401.733 559.533 402.533 539.8 408.4 522.2C414.8 504.6 424.133 488.867 436.4 475C449.2 460.6 463.067 447.533 478 435.8C493.467 423.533 508.133 411.533 522 399.8C535.867 388.067 547.333 376.067 556.4 363.8C565.467 351 570 337.133 570 322.2C570 303.533 565.467 287 556.4 272.6C547.333 258.2 534 247 516.4 239C498.8 230.467 476.133 226.2 448.4 226.2C421.2 226.2 394.8 232.333 369.2 244.6C344.133 256.333 320.133 274.467 297.2 299L254 259C280.667 230.733 310.267 208.333 342.8 191.8C375.333 174.733 413.2 166.2 456.4 166.2C494.267 166.2 526.8 172.333 554 184.6C581.733 196.867 603.067 214.2 618 236.6C633.467 258.467 641.2 284.867 641.2 315.8C641.2 336.067 636.667 353.933 627.6 369.4C618.533 384.867 606.8 399 592.4 411.8C578.533 424.6 563.867 437.133 548.4 449.4C532.933 461.133 518.533 473.4 505.2 486.2C492.4 499 482.533 513.133 475.6 528.6C469.2 544.067 467.867 561.667 471.6 581.4H406ZM440.4 779C426 779 413.733 774.2 403.6 764.6C393.467 755 388.4 742.2 388.4 726.2C388.4 710.2 393.467 697.4 403.6 687.8C413.733 677.667 426 672.6 440.4 672.6C454.267 672.6 466.267 677.667 476.4 687.8C486.533 697.4 491.6 710.2 491.6 726.2C491.6 742.2 486.533 755 476.4 764.6C466.267 774.2 454.267 779 440.4 779Z"/>
</mask>
<path d="M406 581.4C401.733 559.533 402.533 539.8 408.4 522.2C414.8 504.6 424.133 488.867 436.4 475C449.2 460.6 463.067 447.533 478 435.8C493.467 423.533 508.133 411.533 522 399.8C535.867 388.067 547.333 376.067 556.4 363.8C565.467 351 570 337.133 570 322.2C570 303.533 565.467 287 556.4 272.6C547.333 258.2 534 247 516.4 239C498.8 230.467 476.133 226.2 448.4 226.2C421.2 226.2 394.8 232.333 369.2 244.6C344.133 256.333 320.133 274.467 297.2 299L254 259C280.667 230.733 310.267 208.333 342.8 191.8C375.333 174.733 413.2 166.2 456.4 166.2C494.267 166.2 526.8 172.333 554 184.6C581.733 196.867 603.067 214.2 618 236.6C633.467 258.467 641.2 284.867 641.2 315.8C641.2 336.067 636.667 353.933 627.6 369.4C618.533 384.867 606.8 399 592.4 411.8C578.533 424.6 563.867 437.133 548.4 449.4C532.933 461.133 518.533 473.4 505.2 486.2C492.4 499 482.533 513.133 475.6 528.6C469.2 544.067 467.867 561.667 471.6 581.4H406ZM440.4 779C426 779 413.733 774.2 403.6 764.6C393.467 755 388.4 742.2 388.4 726.2C388.4 710.2 393.467 697.4 403.6 687.8C413.733 677.667 426 672.6 440.4 672.6C454.267 672.6 466.267 677.667 476.4 687.8C486.533 697.4 491.6 710.2 491.6 726.2C491.6 742.2 486.533 755 476.4 764.6C466.267 774.2 454.267 779 440.4 779Z" fill="#8F161A"/>
<path d="M406 581.4L405.019 581.591L405.176 582.4H406V581.4ZM408.4 522.2L407.46 521.858L407.456 521.871L407.451 521.884L408.4 522.2ZM436.4 475L435.653 474.336L435.651 474.337L436.4 475ZM478 435.8L478.618 436.586L478.621 436.583L478 435.8ZM522 399.8L522.646 400.563V400.563L522 399.8ZM556.4 363.8L557.204 364.394L557.21 364.386L557.216 364.378L556.4 363.8ZM556.4 272.6L555.554 273.133V273.133L556.4 272.6ZM516.4 239L515.964 239.9L515.975 239.905L515.986 239.91L516.4 239ZM369.2 244.6L369.624 245.506L369.632 245.502L369.2 244.6ZM297.2 299L296.521 299.734L297.251 300.41L297.931 299.683L297.2 299ZM254 259L253.273 258.314L252.58 259.048L253.321 259.734L254 259ZM342.8 191.8L343.253 192.692L343.265 192.686L342.8 191.8ZM554 184.6L553.589 185.512L553.596 185.515L554 184.6ZM618 236.6L617.168 237.155L617.176 237.166L617.184 237.177L618 236.6ZM627.6 369.4L628.463 369.906V369.906L627.6 369.4ZM592.4 411.8L591.736 411.053L591.729 411.059L591.722 411.065L592.4 411.8ZM548.4 449.4L549.004 450.197L549.013 450.19L549.021 450.184L548.4 449.4ZM505.2 486.2L504.507 485.479L504.5 485.486L504.493 485.493L505.2 486.2ZM475.6 528.6L474.688 528.191L474.682 528.204L474.676 528.218L475.6 528.6ZM471.6 581.4V582.4H472.807L472.583 581.214L471.6 581.4ZM403.6 764.6L404.288 763.874V763.874L403.6 764.6ZM403.6 687.8L404.288 688.526L404.298 688.517L404.307 688.507L403.6 687.8ZM476.4 687.8L475.693 688.507L475.702 688.517L475.712 688.526L476.4 687.8ZM476.4 764.6L477.088 765.326V765.326L476.4 764.6ZM406 581.4L406.982 581.208C402.741 559.477 403.547 539.923 409.349 522.516L408.4 522.2L407.451 521.884C401.52 539.677 400.725 559.59 405.019 581.591L406 581.4ZM408.4 522.2L409.34 522.542C415.697 505.058 424.966 489.434 437.149 475.663L436.4 475L435.651 474.337C423.3 488.299 413.903 504.142 407.46 521.858L408.4 522.2ZM436.4 475L437.147 475.664C449.909 461.308 463.732 448.282 478.618 436.586L478 435.8L477.382 435.014C462.401 446.784 448.492 459.892 435.653 474.336L436.4 475ZM478 435.8L478.621 436.583C494.096 424.311 508.771 412.304 522.646 400.563L522 399.8L521.354 399.037C507.496 410.763 492.838 422.756 477.379 435.016L478 435.8ZM522 399.8L522.646 400.563C536.561 388.789 548.084 376.734 557.204 364.394L556.4 363.8L555.596 363.206C546.583 375.4 535.173 387.344 521.354 399.037L522 399.8ZM556.4 363.8L557.216 364.378C566.396 351.418 571 337.351 571 322.2H570H569C569 336.915 564.537 350.582 555.584 363.222L556.4 363.8ZM570 322.2H571C571 303.364 566.423 286.642 557.246 272.067L556.4 272.6L555.554 273.133C564.51 287.358 569 303.703 569 322.2H570ZM556.4 272.6L557.246 272.067C548.062 257.48 534.567 246.159 516.814 238.09L516.4 239L515.986 239.91C533.433 247.841 546.605 258.92 555.554 273.133L556.4 272.6ZM516.4 239L516.836 238.1C499.056 229.479 476.226 225.2 448.4 225.2V226.2V227.2C476.041 227.2 498.544 231.454 515.964 239.9L516.4 239ZM448.4 226.2V225.2C421.044 225.2 394.497 231.37 368.768 243.698L369.2 244.6L369.632 245.502C395.103 233.297 421.356 227.2 448.4 227.2V226.2ZM369.2 244.6L368.776 243.694C343.572 255.492 319.472 273.71 296.469 298.317L297.2 299L297.931 299.683C320.795 275.223 344.695 257.175 369.624 245.506L369.2 244.6ZM297.2 299L297.879 298.266L254.679 258.266L254 259L253.321 259.734L296.521 299.734L297.2 299ZM254 259L254.727 259.686C281.32 231.498 310.829 209.169 343.253 192.691L342.8 191.8L342.347 190.909C309.705 207.497 280.013 229.969 253.273 258.314L254 259ZM342.8 191.8L343.265 192.686C375.631 175.706 413.333 167.2 456.4 167.2V166.2V165.2C413.067 165.2 375.035 173.76 342.335 190.914L342.8 191.8ZM456.4 166.2V167.2C494.162 167.2 526.548 173.317 553.589 185.512L554 184.6L554.411 183.688C527.052 171.35 494.372 165.2 456.4 165.2V166.2ZM554 184.6L553.596 185.515C581.178 197.714 602.353 214.932 617.168 237.155L618 236.6L618.832 236.045C603.78 213.468 582.289 196.019 554.405 183.685L554 184.6ZM618 236.6L617.184 237.177C632.513 258.85 640.2 285.04 640.2 315.8H641.2H642.2C642.2 284.693 634.42 258.083 618.816 236.023L618 236.6ZM641.2 315.8H640.2C640.2 335.913 635.703 353.6 626.737 368.894L627.6 369.4L628.463 369.906C637.631 354.266 642.2 336.221 642.2 315.8H641.2ZM627.6 369.4L626.737 368.894C617.728 384.264 606.063 398.317 591.736 411.053L592.4 411.8L593.064 412.547C607.537 399.683 619.339 385.469 628.463 369.906L627.6 369.4ZM592.4 411.8L591.722 411.065C577.874 423.848 563.227 436.365 547.779 448.616L548.4 449.4L549.021 450.184C564.507 437.902 579.192 425.352 593.078 412.535L592.4 411.8ZM548.4 449.4L547.796 448.603C532.3 460.359 517.87 472.651 504.507 485.479L505.2 486.2L505.893 486.921C519.197 474.149 533.567 461.908 549.004 450.197L548.4 449.4ZM505.2 486.2L504.493 485.493C491.613 498.373 481.674 512.606 474.688 528.191L475.6 528.6L476.513 529.009C483.393 513.661 493.187 499.627 505.907 486.907L505.2 486.2ZM475.6 528.6L474.676 528.218C468.188 543.897 466.855 561.7 470.617 581.586L471.6 581.4L472.583 581.214C468.878 561.633 470.212 544.236 476.524 528.982L475.6 528.6ZM471.6 581.4V580.4H406V581.4V582.4H471.6V581.4ZM440.4 779V778C426.247 778 414.229 773.292 404.288 763.874L403.6 764.6L402.912 765.326C413.238 775.108 425.753 780 440.4 780V779ZM403.6 764.6L404.288 763.874C394.384 754.491 389.4 741.969 389.4 726.2H388.4H387.4C387.4 742.431 392.55 755.509 402.912 765.326L403.6 764.6ZM388.4 726.2H389.4C389.4 710.431 394.384 697.909 404.288 688.526L403.6 687.8L402.912 687.074C392.55 696.891 387.4 709.969 387.4 726.2H388.4ZM403.6 687.8L404.307 688.507C414.252 678.562 426.264 673.6 440.4 673.6V672.6V671.6C425.736 671.6 413.215 676.771 402.893 687.093L403.6 687.8ZM440.4 672.6V673.6C453.992 673.6 465.74 678.554 475.693 688.507L476.4 687.8L477.107 687.093C466.793 676.779 454.542 671.6 440.4 671.6V672.6ZM476.4 687.8L475.712 688.526C485.616 697.909 490.6 710.431 490.6 726.2H491.6H492.6C492.6 709.969 487.45 696.891 477.088 687.074L476.4 687.8ZM491.6 726.2H490.6C490.6 741.969 485.616 754.491 475.712 763.874L476.4 764.6L477.088 765.326C487.45 755.509 492.6 742.431 492.6 726.2H491.6ZM476.4 764.6L475.712 763.874C465.763 773.299 454.009 778 440.4 778V779V780C454.524 780 466.77 775.101 477.088 765.326L476.4 764.6Z" fill="black" mask="url(#path-2-outside-1_25_185)"/>
</svg>
