<svg width="900" height="900" viewBox="0 0 900 900" fill="none" xmlns="http://www.w3.org/2000/svg">
<path d="M0 0H900V900H0V0Z" fill="#FFFCF5"/>
<path d="M225.072 394V359.68C225.072 358.404 225.094 357.018 225.138 355.522C225.182 354.026 225.248 352.486 225.336 350.902H225.072C224.148 352.354 223.268 353.784 222.432 355.192C221.596 356.556 220.738 357.854 219.858 359.086L207.516 375.85H238.206V380.668H200.652V376.642L223.29 345.49H230.748V394H225.072ZM256.818 359.548C258.006 359.328 259.194 359.064 260.382 358.756C261.614 358.404 262.846 358.03 264.078 357.634C265.486 357.194 267.29 356.622 269.49 355.918C271.69 355.17 274.088 354.444 276.684 353.74C279.28 352.992 281.92 352.376 284.604 351.892C287.332 351.364 289.884 351.1 292.26 351.1C295.956 351.1 299.278 351.782 302.226 353.146C305.174 354.51 307.528 356.49 309.288 359.086C311.048 361.682 311.928 364.828 311.928 368.524C311.928 371.692 311.312 374.53 310.08 377.038C308.892 379.546 307.198 381.768 304.998 383.704C302.842 385.596 300.268 387.202 297.276 388.522C294.284 389.798 290.962 390.832 287.31 391.624C283.702 392.372 279.874 392.856 275.826 393.076L273.45 387.598C277.806 387.51 281.942 387.092 285.858 386.344C289.774 385.552 293.25 384.408 296.286 382.912C299.366 381.416 301.786 379.48 303.546 377.104C305.306 374.684 306.186 371.78 306.186 368.392C306.186 366.104 305.636 364.036 304.536 362.188C303.436 360.296 301.83 358.8 299.718 357.7C297.65 356.6 295.12 356.05 292.128 356.05C289.972 356.05 287.618 356.314 285.066 356.842C282.514 357.326 279.94 357.964 277.344 358.756C274.748 359.504 272.262 360.318 269.886 361.198C267.554 362.078 265.464 362.892 263.616 363.64C261.768 364.388 260.316 364.96 259.26 365.356L256.818 359.548ZM355.224 348.922C354.784 352.354 354.212 355.94 353.508 359.68C352.848 363.42 351.99 367.05 350.934 370.57C349.614 375.102 348.14 378.886 346.512 381.922C344.928 384.958 343.212 387.246 341.364 388.786C339.516 390.326 337.58 391.096 335.556 391.096C333.62 391.096 331.75 390.392 329.946 388.984C328.142 387.576 326.668 385.552 325.524 382.912C324.38 380.228 323.808 377.082 323.808 373.474C323.808 369.866 324.534 366.456 325.986 363.244C327.482 360.032 329.528 357.194 332.124 354.73C334.764 352.222 337.844 350.242 341.364 348.79C344.884 347.338 348.646 346.612 352.65 346.612C356.522 346.612 359.998 347.25 363.078 348.526C366.202 349.802 368.864 351.562 371.064 353.806C373.264 356.006 374.958 358.58 376.146 361.528C377.334 364.432 377.928 367.556 377.928 370.9C377.928 375.52 376.938 379.59 374.958 383.11C373.022 386.63 370.206 389.49 366.51 391.69C362.858 393.89 358.414 395.342 353.178 396.046L350.076 391.162C351.132 391.03 352.144 390.898 353.112 390.766C354.08 390.634 354.96 390.48 355.752 390.304C357.864 389.82 359.91 389.072 361.89 388.06C363.914 387.004 365.718 385.684 367.302 384.1C368.886 382.472 370.14 380.558 371.064 378.358C372.032 376.114 372.516 373.562 372.516 370.702C372.516 368.018 372.076 365.532 371.196 363.244C370.316 360.912 369.018 358.866 367.302 357.106C365.586 355.346 363.496 353.96 361.032 352.948C358.568 351.936 355.752 351.43 352.584 351.43C348.976 351.43 345.698 352.09 342.75 353.41C339.846 354.73 337.36 356.468 335.292 358.624C333.268 360.736 331.706 363.068 330.606 365.62C329.506 368.128 328.956 370.592 328.956 373.012C328.956 375.784 329.308 378.072 330.012 379.876C330.76 381.636 331.64 382.934 332.652 383.77C333.708 384.606 334.742 385.024 335.754 385.024C336.81 385.024 337.888 384.518 338.988 383.506C340.088 382.45 341.21 380.778 342.354 378.49C343.498 376.158 344.62 373.144 345.72 369.448C346.688 366.28 347.502 362.914 348.162 359.35C348.866 355.786 349.372 352.288 349.68 348.856L355.224 348.922ZM432.444 345.226C432.796 347.206 433.258 349.362 433.83 351.694C434.446 354.026 435.26 356.424 436.272 358.888C437.328 361.352 438.67 363.816 440.298 366.28C441.97 368.7 444.016 370.988 446.436 373.144L443.004 377.83C440.584 375.234 438.428 372.396 436.536 369.316C434.644 366.192 432.95 362.76 431.454 359.02C429.958 355.28 428.55 351.166 427.23 346.678L432.444 345.226ZM391.194 348.724C392.206 348.812 393.372 348.812 394.692 348.724C396.188 348.68 397.926 348.548 399.906 348.328C401.886 348.108 403.888 347.844 405.912 347.536C407.936 347.228 409.806 346.898 411.522 346.546C413.282 346.194 414.646 345.82 415.614 345.424L417.132 350.11C416.692 350.198 416.12 350.352 415.416 350.572C414.712 350.792 414.118 351.034 413.634 351.298C412.798 351.914 411.764 352.838 410.532 354.07C409.344 355.302 408.09 356.82 406.77 358.624C405.494 360.384 404.284 362.364 403.14 364.564C402.04 366.764 401.138 369.118 400.434 371.626C399.73 374.134 399.378 376.752 399.378 379.48C399.378 381.812 399.708 383.77 400.368 385.354C401.072 386.938 402.04 388.214 403.272 389.182C404.504 390.15 405.89 390.854 407.43 391.294C408.97 391.734 410.576 391.954 412.248 391.954C417.528 391.954 421.62 390.194 424.524 386.674C427.472 383.11 429.254 378.116 429.87 371.692C430.486 365.268 429.958 357.744 428.286 349.12L433.17 358.096C433.83 361.836 434.182 365.598 434.226 369.382C434.314 373.122 433.962 376.664 433.17 380.008C432.422 383.352 431.19 386.322 429.474 388.918C427.758 391.514 425.47 393.56 422.61 395.056C419.75 396.552 416.252 397.3 412.116 397.3C409.52 397.3 407.122 396.926 404.922 396.178C402.766 395.474 400.874 394.44 399.246 393.076C397.618 391.668 396.364 389.93 395.484 387.862C394.604 385.75 394.164 383.33 394.164 380.602C394.164 377.522 394.538 374.618 395.286 371.89C396.034 369.162 397.002 366.632 398.19 364.3C399.378 361.924 400.698 359.724 402.15 357.7C403.602 355.676 405.054 353.85 406.506 352.222C405.362 352.398 404.064 352.596 402.612 352.816C401.204 352.992 399.84 353.168 398.52 353.344C397.2 353.476 396.122 353.608 395.286 353.74C394.67 353.784 394.054 353.85 393.438 353.938C392.866 354.026 392.25 354.136 391.59 354.268L391.194 348.724ZM472.11 342.256C473.518 342.696 475.344 343.18 477.588 343.708C479.876 344.236 482.274 344.764 484.782 345.292C487.334 345.776 489.754 346.216 492.042 346.612C494.33 346.964 496.2 347.206 497.652 347.338L496.398 352.42C495.166 352.244 493.648 352.002 491.844 351.694C490.084 351.386 488.192 351.034 486.168 350.638C484.144 350.242 482.142 349.846 480.162 349.45C478.182 349.01 476.378 348.614 474.75 348.262C473.122 347.866 471.802 347.536 470.79 347.272L472.11 342.256ZM470.658 354.268C470.438 355.412 470.196 356.82 469.932 358.492C469.712 360.12 469.47 361.836 469.206 363.64C468.942 365.444 468.7 367.16 468.48 368.788C468.26 370.416 468.062 371.758 467.886 372.814C471.098 370.042 474.486 368.018 478.05 366.742C481.658 365.422 485.442 364.762 489.402 364.762C492.79 364.762 495.738 365.378 498.246 366.61C500.754 367.798 502.712 369.448 504.12 371.56C505.528 373.628 506.232 375.96 506.232 378.556C506.232 381.504 505.55 384.188 504.186 386.608C502.866 388.984 500.776 390.986 497.916 392.614C495.1 394.242 491.492 395.386 487.092 396.046C482.692 396.75 477.412 396.838 471.252 396.31L469.668 390.898C476.664 391.734 482.45 391.712 487.026 390.832C491.602 389.908 495.012 388.368 497.256 386.212C499.544 384.012 500.688 381.416 500.688 378.424C500.688 376.664 500.182 375.102 499.17 373.738C498.158 372.374 496.772 371.318 495.012 370.57C493.296 369.778 491.316 369.382 489.072 369.382C484.76 369.382 480.844 370.174 477.324 371.758C473.848 373.298 470.944 375.454 468.612 378.226C468.128 378.798 467.732 379.37 467.424 379.942C467.116 380.47 466.852 380.998 466.632 381.526L461.748 380.338C462.012 379.106 462.276 377.632 462.54 375.916C462.804 374.156 463.068 372.286 463.332 370.306C463.596 368.282 463.838 366.258 464.058 364.234C464.322 362.21 464.542 360.274 464.718 358.426C464.894 356.534 465.026 354.906 465.114 353.542L470.658 354.268ZM543.984 342.718C543.896 343.334 543.786 343.994 543.654 344.698C543.522 345.358 543.39 346.018 543.258 346.678C543.082 347.426 542.884 348.482 542.664 349.846C542.444 351.21 542.18 352.662 541.872 354.202C541.608 355.698 541.322 357.15 541.014 358.558C540.53 360.406 539.958 362.518 539.298 364.894C538.682 367.226 537.934 369.734 537.054 372.418C536.218 375.058 535.272 377.764 534.216 380.536C533.16 383.264 531.994 385.97 530.718 388.654C529.442 391.338 528.056 393.89 526.56 396.31L521.214 394.132C522.71 392.152 524.118 389.908 525.438 387.4C526.758 384.892 527.968 382.296 529.068 379.612C530.168 376.884 531.158 374.2 532.038 371.56C532.918 368.92 533.666 366.478 534.282 364.234C534.942 361.946 535.448 359.988 535.8 358.36C536.416 355.764 536.922 353.036 537.318 350.176C537.714 347.316 537.912 344.632 537.912 342.124L543.984 342.718ZM566.688 350.374C567.744 351.694 568.844 353.366 569.988 355.39C571.176 357.414 572.32 359.548 573.42 361.792C574.564 364.036 575.598 366.214 576.522 368.326C577.49 370.438 578.238 372.264 578.766 373.804L573.684 376.246C573.2 374.53 572.518 372.594 571.638 370.438C570.802 368.282 569.834 366.104 568.734 363.904C567.678 361.66 566.556 359.548 565.368 357.568C564.224 355.544 563.058 353.872 561.87 352.552L566.688 350.374ZM520.224 357.238C521.28 357.282 522.27 357.304 523.194 357.304C524.118 357.304 525.108 357.282 526.164 357.238C527.132 357.194 528.386 357.128 529.926 357.04C531.51 356.908 533.204 356.776 535.008 356.644C536.812 356.468 538.616 356.314 540.42 356.182C542.224 356.006 543.874 355.874 545.37 355.786C546.866 355.654 548.054 355.588 548.934 355.588C550.914 355.588 552.696 355.918 554.28 356.578C555.908 357.194 557.206 358.316 558.174 359.944C559.186 361.528 559.692 363.816 559.692 366.808C559.692 369.404 559.56 372.22 559.296 375.256C559.032 378.248 558.614 381.108 558.042 383.836C557.514 386.52 556.788 388.786 555.864 390.634C554.852 392.834 553.532 394.286 551.904 394.99C550.276 395.738 548.384 396.112 546.228 396.112C544.952 396.112 543.588 396.002 542.136 395.782C540.728 395.606 539.496 395.408 538.44 395.188L537.582 389.644C538.506 389.952 539.474 390.216 540.486 390.436C541.498 390.612 542.466 390.766 543.39 390.898C544.314 390.986 545.062 391.03 545.634 391.03C546.866 391.03 547.966 390.832 548.934 390.436C549.902 389.996 550.738 389.05 551.442 387.598C552.146 386.102 552.718 384.232 553.158 381.988C553.642 379.744 553.994 377.346 554.214 374.794C554.434 372.242 554.544 369.778 554.544 367.402C554.544 365.378 554.258 363.86 553.686 362.848C553.114 361.836 552.3 361.154 551.244 360.802C550.188 360.45 548.956 360.274 547.548 360.274C546.448 360.274 544.952 360.362 543.06 360.538C541.168 360.67 539.144 360.846 536.988 361.066C534.832 361.242 532.83 361.44 530.982 361.66C529.178 361.88 527.77 362.034 526.758 362.122C525.966 362.21 524.976 362.342 523.788 362.518C522.644 362.65 521.654 362.782 520.818 362.914L520.224 357.238ZM567.48 340.804C568.052 341.552 568.646 342.476 569.262 343.576C569.922 344.632 570.582 345.732 571.242 346.876C571.902 347.976 572.452 348.966 572.892 349.846L569.262 351.43C568.866 350.55 568.36 349.56 567.744 348.46C567.128 347.36 566.49 346.26 565.83 345.16C565.17 344.06 564.532 343.092 563.916 342.256L567.48 340.804ZM574.74 338.098C575.312 338.934 575.95 339.902 576.654 341.002C577.358 342.102 578.04 343.202 578.7 344.302C579.36 345.358 579.888 346.304 580.284 347.14L576.72 348.724C576.016 347.272 575.158 345.71 574.146 344.038C573.134 342.322 572.166 340.848 571.242 339.616L574.74 338.098ZM588.402 352.354C589.634 352.53 590.932 352.662 592.296 352.75C593.66 352.794 595.046 352.816 596.454 352.816C598.874 352.816 601.36 352.706 603.912 352.486C606.508 352.266 609.126 351.914 611.766 351.43C614.406 350.902 617.002 350.22 619.554 349.384L619.686 354.334C617.53 354.906 615.154 355.434 612.558 355.918C610.006 356.402 607.344 356.798 604.572 357.106C601.844 357.37 599.138 357.502 596.454 357.502C595.266 357.502 593.99 357.502 592.626 357.502C591.306 357.458 590.008 357.392 588.732 357.304L588.402 352.354ZM611.766 341.596C611.502 342.652 611.172 343.994 610.776 345.622C610.38 347.25 609.94 348.966 609.456 350.77C609.016 352.53 608.532 354.202 608.004 355.786C606.948 358.954 605.606 362.298 603.978 365.818C602.35 369.294 600.612 372.682 598.764 375.982C596.916 379.282 595.09 382.164 593.286 384.628L588.204 381.988C589.656 380.272 591.108 378.314 592.56 376.114C594.056 373.914 595.442 371.604 596.718 369.184C598.038 366.764 599.226 364.388 600.282 362.056C601.338 359.724 602.218 357.59 602.922 355.654C603.626 353.542 604.286 351.166 604.902 348.526C605.518 345.842 605.87 343.356 605.958 341.068L611.766 341.596ZM627.342 361.99C627.298 363.354 627.254 364.586 627.21 365.686C627.21 366.742 627.232 367.886 627.276 369.118C627.32 370.174 627.364 371.538 627.408 373.21C627.496 374.838 627.584 376.576 627.672 378.424C627.76 380.228 627.826 381.966 627.87 383.638C627.958 385.31 628.002 386.696 628.002 387.796C628.002 389.556 627.606 391.162 626.814 392.614C626.022 394.066 624.768 395.21 623.052 396.046C621.38 396.926 619.18 397.366 616.452 397.366C614.032 397.366 611.832 397.014 609.852 396.31C607.872 395.65 606.266 394.616 605.034 393.208C603.846 391.8 603.252 390.018 603.252 387.862C603.252 385.794 603.824 384.034 604.968 382.582C606.156 381.086 607.74 379.942 609.72 379.15C611.744 378.358 613.988 377.962 616.452 377.962C620.148 377.962 623.536 378.49 626.616 379.546C629.74 380.558 632.534 381.856 634.998 383.44C637.506 385.024 639.662 386.586 641.466 388.126L638.628 392.614C637.352 391.47 635.922 390.282 634.338 389.05C632.798 387.818 631.082 386.696 629.19 385.684C627.298 384.628 625.274 383.77 623.118 383.11C620.962 382.45 618.674 382.12 616.254 382.12C613.834 382.12 611.876 382.626 610.38 383.638C608.884 384.65 608.136 385.904 608.136 387.4C608.136 388.94 608.774 390.194 610.05 391.162C611.326 392.13 613.24 392.614 615.792 392.614C617.64 392.614 619.092 392.328 620.148 391.756C621.204 391.14 621.952 390.348 622.392 389.38C622.876 388.368 623.118 387.268 623.118 386.08C623.118 384.848 623.074 383.242 622.986 381.262C622.942 379.282 622.854 377.17 622.722 374.926C622.634 372.638 622.524 370.372 622.392 368.128C622.304 365.84 622.238 363.794 622.194 361.99H627.342ZM640.542 363.772C639.354 362.716 637.858 361.616 636.054 360.472C634.25 359.328 632.38 358.25 630.444 357.238C628.552 356.182 626.88 355.324 625.428 354.664L628.134 350.638C629.322 351.166 630.642 351.804 632.094 352.552C633.546 353.3 634.998 354.092 636.45 354.928C637.902 355.764 639.244 356.578 640.476 357.37C641.752 358.118 642.764 358.8 643.512 359.416L640.542 363.772ZM678.36 341.794C678.096 343.114 677.744 344.676 677.304 346.48C676.908 348.24 676.248 350.242 675.324 352.486C674.532 354.466 673.542 356.512 672.354 358.624C671.21 360.736 669.978 362.65 668.658 364.366C669.494 363.838 670.44 363.398 671.496 363.046C672.552 362.65 673.63 362.364 674.73 362.188C675.874 362.012 676.908 361.924 677.832 361.924C680.384 361.924 682.54 362.65 684.3 364.102C686.06 365.51 686.94 367.578 686.94 370.306C686.94 371.142 686.94 372.22 686.94 373.54C686.94 374.816 686.94 376.18 686.94 377.632C686.984 379.04 687.028 380.426 687.072 381.79C687.116 383.154 687.138 384.342 687.138 385.354H682.056C682.1 384.474 682.144 383.44 682.188 382.252C682.232 381.064 682.254 379.81 682.254 378.49C682.298 377.17 682.298 375.916 682.254 374.728C682.254 373.54 682.254 372.528 682.254 371.692C682.254 369.756 681.66 368.348 680.472 367.468C679.328 366.544 677.876 366.082 676.116 366.082C674.048 366.082 672.002 366.544 669.978 367.468C667.998 368.348 666.26 369.492 664.764 370.9C663.796 371.824 662.828 372.88 661.86 374.068C660.936 375.212 659.902 376.444 658.758 377.764L654.27 374.464C657.438 371.384 660.078 368.502 662.19 365.818C664.302 363.134 666.018 360.648 667.338 358.36C668.658 356.028 669.692 353.938 670.44 352.09C671.144 350.242 671.716 348.394 672.156 346.546C672.596 344.654 672.86 342.916 672.948 341.332L678.36 341.794ZM655.788 348.922C657.548 349.142 659.462 349.318 661.53 349.45C663.598 349.582 665.402 349.648 666.942 349.648C669.89 349.648 673.058 349.582 676.446 349.45C679.834 349.274 683.244 349.032 686.676 348.724C690.152 348.416 693.452 347.976 696.576 347.404L696.51 352.288C694.222 352.684 691.78 353.014 689.184 353.278C686.588 353.498 683.948 353.696 681.264 353.872C678.58 354.004 675.984 354.114 673.476 354.202C671.012 354.246 668.724 354.268 666.612 354.268C665.688 354.268 664.61 354.268 663.378 354.268C662.19 354.224 660.936 354.18 659.616 354.136C658.296 354.048 657.02 353.96 655.788 353.872V348.922ZM706.212 364.894C705.64 365.026 705.002 365.224 704.298 365.488C703.638 365.708 702.956 365.95 702.252 366.214C701.592 366.478 700.954 366.742 700.338 367.006C698.05 367.886 695.388 368.964 692.352 370.24C689.316 371.516 686.214 372.99 683.046 374.662C680.846 375.762 678.91 376.928 677.238 378.16C675.566 379.348 674.246 380.602 673.278 381.922C672.31 383.198 671.826 384.606 671.826 386.146C671.826 387.422 672.112 388.456 672.684 389.248C673.3 390.04 674.158 390.656 675.258 391.096C676.358 391.492 677.612 391.756 679.02 391.888C680.472 392.02 682.056 392.086 683.772 392.086C686.324 392.086 689.228 391.954 692.484 391.69C695.784 391.382 698.886 390.986 701.79 390.502L701.658 395.782C699.986 396.002 698.094 396.2 695.982 396.376C693.914 396.552 691.802 396.684 689.646 396.772C687.534 396.904 685.51 396.97 683.574 396.97C680.45 396.97 677.59 396.684 674.994 396.112C672.442 395.54 670.396 394.528 668.856 393.076C667.316 391.624 666.546 389.556 666.546 386.872C666.546 384.892 667.008 383.088 667.932 381.46C668.856 379.788 670.088 378.27 671.628 376.906C673.212 375.542 674.95 374.288 676.842 373.144C678.734 371.956 680.67 370.878 682.65 369.91C684.762 368.766 686.742 367.776 688.59 366.94C690.482 366.104 692.264 365.334 693.936 364.63C695.608 363.926 697.17 363.222 698.622 362.518C699.59 362.078 700.514 361.66 701.394 361.264C702.274 360.868 703.154 360.428 704.034 359.944L706.212 364.894ZM193.568 431.76H249.14V436.644H193.568V431.76ZM191.852 471.36H250.79V476.376H191.852V471.36ZM211.652 434.994H216.536V473.934H211.652V434.994ZM225.644 434.994H230.66V474H225.644V434.994ZM241.088 442.32L246.368 443.706C245.62 446.082 244.762 448.59 243.794 451.23C242.87 453.826 241.924 456.334 240.956 458.754C240.032 461.174 239.108 463.33 238.184 465.222L233.828 463.902C234.708 462.01 235.588 459.81 236.468 457.302C237.392 454.794 238.272 452.22 239.108 449.58C239.944 446.94 240.604 444.52 241.088 442.32ZM235.742 418.56L241.022 420.144C239.834 422.3 238.558 424.5 237.194 426.744C235.874 428.944 234.598 430.836 233.366 432.42L228.944 430.836C229.736 429.736 230.55 428.482 231.386 427.074C232.222 425.622 233.014 424.148 233.762 422.652C234.554 421.156 235.214 419.792 235.742 418.56ZM196.67 444.168L201.158 443.046C202.258 445.202 203.27 447.534 204.194 450.042C205.118 452.55 205.888 455.014 206.504 457.434C207.12 459.854 207.538 462.032 207.758 463.968L203.006 465.156C202.83 463.22 202.434 461.064 201.818 458.688C201.202 456.268 200.454 453.804 199.574 451.296C198.694 448.744 197.726 446.368 196.67 444.168ZM202.412 420.408L206.768 418.692C208.132 420.452 209.43 422.388 210.662 424.5C211.938 426.568 212.862 428.394 213.434 429.978L208.814 431.958C208.506 430.902 208 429.692 207.296 428.328C206.636 426.964 205.866 425.6 204.986 424.236C204.15 422.828 203.292 421.552 202.412 420.408ZM301.478 426.216C301.83 428.24 302.292 430.418 302.864 432.75C303.48 435.082 304.294 437.48 305.306 439.944C306.362 442.408 307.704 444.85 309.332 447.27C310.96 449.69 313.006 452 315.47 454.2L311.972 458.886C309.552 456.246 307.396 453.386 305.504 450.306C303.656 447.226 301.984 443.816 300.488 440.076C298.992 436.336 297.584 432.222 296.264 427.734L301.478 426.216ZM260.228 429.78C261.24 429.868 262.428 429.868 263.792 429.78C265.244 429.692 266.96 429.56 268.94 429.384C270.92 429.164 272.922 428.9 274.946 428.592C276.97 428.24 278.84 427.888 280.556 427.536C282.316 427.184 283.658 426.832 284.582 426.48L286.166 431.1C285.726 431.232 285.154 431.408 284.45 431.628C283.746 431.804 283.152 432.024 282.668 432.288C281.832 432.904 280.798 433.85 279.566 435.126C278.378 436.358 277.124 437.876 275.804 439.68C274.528 441.44 273.318 443.42 272.174 445.62C271.074 447.82 270.172 450.174 269.468 452.682C268.764 455.19 268.412 457.786 268.412 460.47C268.412 462.802 268.742 464.782 269.402 466.41C270.106 467.994 271.052 469.27 272.24 470.238C273.472 471.162 274.858 471.844 276.398 472.284C277.982 472.724 279.61 472.944 281.282 472.944C286.562 472.944 290.654 471.184 293.558 467.664C296.506 464.1 298.288 459.128 298.904 452.748C299.564 446.324 299.036 438.8 297.32 430.176L302.138 439.086C302.842 442.87 303.216 446.632 303.26 450.372C303.304 454.112 302.952 457.676 302.204 461.064C301.456 464.408 300.224 467.378 298.508 469.974C296.792 472.57 294.504 474.616 291.644 476.112C288.784 477.608 285.286 478.356 281.15 478.356C278.554 478.356 276.156 477.982 273.956 477.234C271.8 476.53 269.908 475.474 268.28 474.066C266.696 472.658 265.464 470.92 264.584 468.852C263.704 466.74 263.264 464.32 263.264 461.592C263.264 458.512 263.616 455.63 264.32 452.946C265.068 450.218 266.014 447.666 267.158 445.29C268.346 442.914 269.666 440.736 271.118 438.756C272.57 436.732 274.022 434.906 275.474 433.278C274.374 433.41 273.098 433.586 271.646 433.806C270.238 433.982 268.874 434.158 267.554 434.334C266.234 434.51 265.156 434.642 264.32 434.73C263.704 434.818 263.088 434.906 262.472 434.994C261.9 435.082 261.284 435.192 260.624 435.324L260.228 429.78ZM307.22 422.52C307.704 423.312 308.21 424.28 308.738 425.424C309.31 426.524 309.86 427.624 310.388 428.724C310.96 429.824 311.422 430.836 311.774 431.76L308.342 433.08C307.946 432.068 307.484 430.99 306.956 429.846C306.472 428.702 305.966 427.602 305.438 426.546C304.91 425.446 304.404 424.478 303.92 423.642L307.22 422.52ZM313.952 419.946C314.7 421.134 315.514 422.63 316.394 424.434C317.274 426.194 318.022 427.778 318.638 429.186L315.206 430.44C314.59 428.944 313.886 427.338 313.094 425.622C312.302 423.906 311.51 422.432 310.718 421.2L313.952 419.946ZM332.564 451.362H373.946V479.016H368.996V455.586H337.448V479.28H332.564V451.362ZM335.6 461.922H370.976V465.816H335.6V461.922ZM326.294 424.368H349.922V428.328H326.294V424.368ZM355.004 424.368H380.282V428.328H355.004V424.368ZM324.314 434.136H351.11V438.228H324.314V434.136ZM353.618 434.136H382.328V438.228H353.618V434.136ZM335.534 472.548H370.91V476.772H335.534V472.548ZM336.392 418.56H341.144V428.328C341.144 430.264 340.968 432.332 340.616 434.532C340.308 436.688 339.648 438.888 338.636 441.132C337.624 443.376 336.15 445.554 334.214 447.666C332.278 449.778 329.682 451.736 326.426 453.54C326.074 453.012 325.568 452.418 324.908 451.758C324.292 451.098 323.698 450.548 323.126 450.108C326.206 448.568 328.648 446.874 330.452 445.026C332.256 443.178 333.576 441.286 334.412 439.35C335.248 437.37 335.776 435.434 335.996 433.542C336.26 431.606 336.392 429.846 336.392 428.262V418.56ZM364.838 418.56H369.59V429.054C369.59 430.858 369.414 432.75 369.062 434.73C368.71 436.666 368.028 438.624 367.016 440.604C366.004 442.584 364.53 444.498 362.594 446.346C360.658 448.15 358.106 449.778 354.938 451.23C354.63 450.702 354.168 450.108 353.552 449.448C352.936 448.744 352.364 448.172 351.836 447.732C354.784 446.5 357.116 445.114 358.832 443.574C360.592 441.99 361.912 440.362 362.792 438.69C363.672 437.018 364.222 435.346 364.442 433.674C364.706 432.002 364.838 430.44 364.838 428.988V418.56ZM369.788 435.126C371.02 438.25 372.868 441.066 375.332 443.574C377.796 446.082 380.678 447.93 383.978 449.118C383.45 449.558 382.878 450.152 382.262 450.9C381.646 451.648 381.162 452.308 380.81 452.88C377.334 451.384 374.32 449.162 371.768 446.214C369.216 443.222 367.28 439.9 365.96 436.248L369.788 435.126ZM335.798 440.802L338.9 437.898C340.176 438.734 341.518 439.68 342.926 440.736C344.378 441.748 345.764 442.76 347.084 443.772C348.404 444.74 349.504 445.576 350.384 446.28L347.216 449.646C346.38 448.898 345.302 447.996 343.982 446.94C342.706 445.884 341.342 444.828 339.89 443.772C338.438 442.672 337.074 441.682 335.798 440.802ZM406.88 421.926C408.684 422.322 410.752 422.718 413.084 423.114C415.416 423.466 417.814 423.818 420.278 424.17C422.742 424.478 425.074 424.742 427.274 424.962C429.518 425.138 431.41 425.292 432.95 425.424L432.224 430.308C430.596 430.176 428.682 429.978 426.482 429.714C424.326 429.45 422.06 429.164 419.684 428.856C417.308 428.548 414.932 428.218 412.556 427.866C410.224 427.47 408.046 427.096 406.022 426.744L406.88 421.926ZM434.27 440.802C433.654 441.242 432.994 441.748 432.29 442.32C431.586 442.892 431.036 443.376 430.64 443.772C429.98 444.344 429.078 445.158 427.934 446.214C426.834 447.226 425.646 448.348 424.37 449.58C423.138 450.768 421.95 451.89 420.806 452.946C419.706 454.002 418.848 454.86 418.232 455.52C418.584 455.476 419.002 455.476 419.486 455.52C420.014 455.52 420.454 455.564 420.806 455.652C422.082 455.784 423.116 456.268 423.908 457.104C424.744 457.94 425.382 459.04 425.822 460.404C426.042 461.02 426.262 461.768 426.482 462.648C426.746 463.528 427.01 464.43 427.274 465.354C427.538 466.234 427.78 467.048 428 467.796C428.44 469.028 429.078 469.93 429.914 470.502C430.75 471.074 432.026 471.36 433.742 471.36C435.238 471.36 436.734 471.316 438.23 471.228C439.77 471.096 441.222 470.92 442.586 470.7C443.994 470.48 445.204 470.26 446.216 470.04L445.886 475.584C444.962 475.716 443.752 475.848 442.256 475.98C440.76 476.156 439.22 476.288 437.636 476.376C436.096 476.508 434.71 476.574 433.478 476.574C430.838 476.574 428.682 476.178 427.01 475.386C425.382 474.594 424.216 473.12 423.512 470.964C423.292 470.304 423.028 469.49 422.72 468.522C422.456 467.51 422.192 466.52 421.928 465.552C421.708 464.584 421.488 463.792 421.268 463.176C420.872 462.032 420.322 461.174 419.618 460.602C418.958 459.986 418.166 459.678 417.242 459.678C416.318 459.678 415.46 459.898 414.668 460.338C413.876 460.734 413.106 461.306 412.358 462.054C411.874 462.538 411.214 463.198 410.378 464.034C409.542 464.826 408.618 465.772 407.606 466.872C406.638 467.928 405.626 469.05 404.57 470.238C403.514 471.382 402.502 472.526 401.534 473.67C400.566 474.77 399.708 475.804 398.96 476.772L393.944 473.274C394.34 472.922 394.824 472.504 395.396 472.02C395.968 471.492 396.584 470.92 397.244 470.304C397.684 469.864 398.498 469.05 399.686 467.862C400.874 466.63 402.304 465.178 403.976 463.506C405.692 461.834 407.496 460.052 409.388 458.16C411.28 456.224 413.172 454.332 415.064 452.484C416.956 450.592 418.694 448.832 420.278 447.204C421.906 445.576 423.27 444.212 424.37 443.112C423.358 443.156 422.126 443.244 420.674 443.376C419.222 443.464 417.704 443.574 416.12 443.706C414.536 443.838 412.974 443.97 411.434 444.102C409.894 444.234 408.464 444.344 407.144 444.432C405.868 444.52 404.834 444.608 404.042 444.696C402.942 444.784 401.952 444.894 401.072 445.026C400.236 445.114 399.444 445.224 398.696 445.356L398.234 439.548C398.982 439.592 399.84 439.636 400.808 439.68C401.776 439.724 402.788 439.724 403.844 439.68C404.592 439.68 405.736 439.636 407.276 439.548C408.816 439.46 410.554 439.35 412.49 439.218C414.47 439.086 416.45 438.954 418.43 438.822C420.41 438.646 422.236 438.492 423.908 438.36C425.624 438.228 426.966 438.096 427.934 437.964C428.506 437.876 429.1 437.766 429.716 437.634C430.332 437.502 430.794 437.37 431.102 437.238L434.27 440.802ZM454.611 430.176C455.887 430.132 457.031 430.088 458.043 430.044C459.055 429.956 459.869 429.89 460.485 429.846C461.541 429.714 463.059 429.56 465.039 429.384C467.063 429.164 469.373 428.944 471.969 428.724C474.565 428.46 477.359 428.196 480.351 427.932C483.343 427.668 486.357 427.404 489.393 427.14C491.813 426.92 494.101 426.744 496.257 426.612C498.413 426.436 500.415 426.304 502.263 426.216C504.111 426.084 505.761 425.996 507.213 425.952V431.232C505.981 431.188 504.573 431.188 502.989 431.232C501.405 431.276 499.843 431.386 498.303 431.562C496.763 431.694 495.421 431.936 494.277 432.288C491.945 433.036 489.833 434.18 487.941 435.72C486.093 437.216 484.509 438.954 483.189 440.934C481.869 442.87 480.857 444.916 480.153 447.072C479.493 449.184 479.163 451.208 479.163 453.144C479.163 455.74 479.603 458.006 480.483 459.942C481.363 461.834 482.551 463.44 484.047 464.76C485.587 466.08 487.325 467.158 489.261 467.994C491.241 468.83 493.309 469.446 495.465 469.842C497.621 470.238 499.777 470.48 501.933 470.568L500.019 476.046C497.599 475.958 495.135 475.606 492.627 474.99C490.163 474.418 487.809 473.582 485.565 472.482C483.321 471.338 481.319 469.908 479.559 468.192C477.799 466.476 476.413 464.474 475.401 462.186C474.389 459.898 473.883 457.28 473.883 454.332C473.883 450.9 474.477 447.732 475.665 444.828C476.897 441.88 478.459 439.306 480.351 437.106C482.243 434.906 484.201 433.212 486.225 432.024C484.817 432.2 483.079 432.398 481.011 432.618C478.943 432.838 476.699 433.08 474.279 433.344C471.903 433.564 469.527 433.828 467.151 434.136C464.775 434.444 462.531 434.752 460.419 435.06C458.351 435.324 456.613 435.61 455.205 435.918L454.611 430.176ZM520.215 430.572C521.447 430.528 522.569 430.484 523.581 430.44C524.637 430.352 525.473 430.286 526.089 430.242C527.145 430.11 528.663 429.956 530.643 429.78C532.667 429.56 534.977 429.34 537.573 429.12C540.169 428.856 542.963 428.592 545.955 428.328C548.947 428.064 551.961 427.8 554.997 427.536C557.417 427.316 559.705 427.14 561.861 427.008C564.017 426.832 566.019 426.7 567.867 426.612C569.715 426.48 571.365 426.392 572.817 426.348V431.628C571.585 431.628 570.177 431.65 568.593 431.694C567.009 431.738 565.447 431.826 563.907 431.958C562.367 432.09 561.025 432.332 559.881 432.684C557.549 433.432 555.437 434.576 553.545 436.116C551.697 437.612 550.113 439.35 548.793 441.33C547.473 443.31 546.461 445.356 545.757 447.468C545.097 449.58 544.767 451.626 544.767 453.606C544.767 456.158 545.207 458.402 546.087 460.338C546.967 462.23 548.155 463.836 549.651 465.156C551.191 466.476 552.929 467.554 554.865 468.39C556.801 469.226 558.847 469.864 561.003 470.304C563.203 470.7 565.381 470.92 567.537 470.964L565.623 476.442C563.159 476.354 560.695 476.002 558.231 475.386C555.767 474.814 553.413 473.978 551.169 472.878C548.925 471.734 546.923 470.304 545.163 468.588C543.403 466.872 542.017 464.87 541.005 462.582C539.993 460.294 539.487 457.676 539.487 454.728C539.487 451.296 540.081 448.128 541.269 445.224C542.501 442.276 544.063 439.702 545.955 437.502C547.847 435.302 549.805 433.608 551.829 432.42C550.421 432.596 548.661 432.794 546.549 433.014C544.481 433.234 542.259 433.476 539.883 433.74C537.507 433.96 535.109 434.224 532.689 434.532C530.313 434.84 528.091 435.148 526.023 435.456C523.955 435.72 522.217 436.006 520.809 436.314L520.215 430.572ZM563.313 439.746C563.797 440.45 564.369 441.352 565.029 442.452C565.733 443.508 566.415 444.608 567.075 445.752C567.735 446.852 568.285 447.908 568.725 448.92L565.359 450.504C564.611 448.876 563.775 447.27 562.851 445.686C561.927 444.058 560.959 442.562 559.947 441.198L563.313 439.746ZM570.507 436.974C571.035 437.678 571.651 438.558 572.355 439.614C573.059 440.67 573.741 441.77 574.401 442.914C575.105 444.014 575.721 445.07 576.249 446.082L572.817 447.732C572.025 446.104 571.145 444.498 570.177 442.914C569.253 441.33 568.285 439.856 567.273 438.492L570.507 436.974ZM592.815 428.79C597.435 429.318 601.835 429.626 606.015 429.714C610.239 429.802 614.045 429.692 617.433 429.384C620.117 429.12 622.779 428.724 625.419 428.196C628.103 427.624 630.633 426.964 633.009 426.216L633.735 430.968C631.579 431.584 629.159 432.156 626.475 432.684C623.835 433.212 621.195 433.608 618.555 433.872C615.211 434.18 611.317 434.334 606.873 434.334C602.473 434.29 597.897 434.048 593.145 433.608L592.815 428.79ZM591.561 442.32C595.301 442.716 598.997 442.98 602.649 443.112C606.301 443.2 609.755 443.178 613.011 443.046C616.267 442.914 619.171 442.694 621.723 442.386C624.891 442.034 627.773 441.572 630.369 441C632.965 440.428 635.143 439.856 636.903 439.284L637.695 444.234C635.891 444.718 633.779 445.202 631.359 445.686C628.939 446.126 626.343 446.522 623.571 446.874C620.843 447.182 617.741 447.424 614.265 447.6C610.789 447.732 607.115 447.776 603.243 447.732C599.415 447.644 595.609 447.49 591.825 447.27L591.561 442.32ZM614.133 427.932C613.869 426.92 613.561 425.93 613.209 424.962C612.901 423.95 612.593 422.982 612.285 422.058L617.895 421.332C618.115 423.18 618.467 425.116 618.951 427.14C619.435 429.12 619.963 431.078 620.535 433.014C621.107 434.906 621.657 436.622 622.185 438.162C622.801 439.878 623.527 441.704 624.363 443.64C625.199 445.576 626.123 447.49 627.135 449.382C628.147 451.274 629.225 453.078 630.369 454.794C630.721 455.278 631.095 455.762 631.491 456.246C631.931 456.686 632.371 457.148 632.811 457.632L630.105 461.658C628.873 461.306 627.421 461.02 625.749 460.8C624.077 460.536 622.361 460.316 620.601 460.14C618.841 459.92 617.191 459.722 615.651 459.546L616.113 455.52C617.873 455.696 619.699 455.894 621.591 456.114C623.483 456.334 624.957 456.51 626.013 456.642C624.165 453.782 622.537 450.834 621.129 447.798C619.765 444.762 618.599 441.902 617.631 439.218C617.103 437.722 616.619 436.336 616.179 435.06C615.783 433.74 615.409 432.486 615.057 431.298C614.749 430.11 614.441 428.988 614.133 427.932ZM601.131 456.51C600.339 457.654 599.679 458.82 599.151 460.008C598.623 461.196 598.359 462.516 598.359 463.968C598.359 466.696 599.591 468.742 602.055 470.106C604.563 471.47 608.413 472.152 613.605 472.152C616.685 472.152 619.479 472.042 621.987 471.822C624.495 471.602 626.937 471.25 629.313 470.766L629.115 476.046C626.827 476.398 624.385 476.662 621.789 476.838C619.193 477.058 616.487 477.168 613.671 477.168C609.359 477.168 605.685 476.728 602.649 475.848C599.657 474.968 597.369 473.626 595.785 471.822C594.245 470.018 593.453 467.708 593.409 464.892C593.365 463 593.585 461.328 594.069 459.876C594.597 458.38 595.235 456.906 595.983 455.454L601.131 456.51ZM661.42 425.358C662.168 425.446 662.96 425.512 663.796 425.556C664.676 425.6 665.446 425.622 666.106 425.622C666.766 425.622 667.844 425.6 669.34 425.556C670.88 425.512 672.596 425.468 674.488 425.424C676.424 425.336 678.338 425.27 680.23 425.226C682.166 425.138 683.882 425.05 685.378 424.962C686.918 424.874 688.04 424.808 688.744 424.764C689.712 424.676 690.46 424.588 690.988 424.5C691.516 424.412 691.956 424.324 692.308 424.236L695.344 428.064C694.772 428.46 694.156 428.878 693.496 429.318C692.88 429.758 692.264 430.242 691.648 430.77C690.812 431.386 689.69 432.288 688.282 433.476C686.874 434.62 685.312 435.918 683.596 437.37C681.924 438.778 680.274 440.164 678.646 441.528C677.018 442.892 675.544 444.124 674.224 445.224C675.764 444.696 677.304 444.344 678.844 444.168C680.428 443.948 681.946 443.838 683.398 443.838C687.05 443.838 690.284 444.52 693.1 445.884C695.96 447.204 698.182 449.03 699.766 451.362C701.394 453.694 702.208 456.356 702.208 459.348C702.208 462.868 701.284 465.948 699.436 468.588C697.588 471.228 694.97 473.252 691.582 474.66C688.194 476.112 684.168 476.838 679.504 476.838C676.512 476.838 673.938 476.442 671.782 475.65C669.626 474.858 667.954 473.758 666.766 472.35C665.622 470.942 665.05 469.314 665.05 467.466C665.05 465.97 665.468 464.562 666.304 463.242C667.14 461.922 668.328 460.866 669.868 460.074C671.408 459.282 673.19 458.886 675.214 458.886C678.162 458.886 680.604 459.502 682.54 460.734C684.476 461.922 685.972 463.506 687.028 465.486C688.084 467.422 688.678 469.512 688.81 471.756L684.058 472.548C683.882 469.732 683.002 467.422 681.418 465.618C679.878 463.77 677.788 462.846 675.148 462.846C673.652 462.846 672.398 463.264 671.386 464.1C670.374 464.936 669.868 465.926 669.868 467.07C669.868 468.654 670.682 469.908 672.31 470.832C673.938 471.756 676.05 472.218 678.646 472.218C682.386 472.218 685.62 471.712 688.348 470.7C691.12 469.688 693.232 468.214 694.684 466.278C696.18 464.342 696.928 462.01 696.928 459.282C696.928 457.126 696.29 455.19 695.014 453.474C693.738 451.758 691.978 450.416 689.734 449.448C687.534 448.436 685.004 447.93 682.144 447.93C679.372 447.93 676.886 448.238 674.686 448.854C672.486 449.426 670.418 450.262 668.482 451.362C666.59 452.462 664.698 453.848 662.806 455.52C660.958 457.148 658.978 459.018 656.866 461.13L653.104 457.236C654.468 456.136 655.964 454.904 657.592 453.54C659.264 452.132 660.936 450.746 662.608 449.382C664.28 447.974 665.82 446.676 667.228 445.488C668.68 444.256 669.89 443.244 670.858 442.452C671.782 441.704 672.926 440.758 674.29 439.614C675.698 438.426 677.15 437.194 678.646 435.918C680.142 434.642 681.55 433.432 682.87 432.288C684.234 431.144 685.334 430.22 686.17 429.516C685.466 429.516 684.432 429.56 683.068 429.648C681.704 429.692 680.186 429.758 678.514 429.846C676.842 429.89 675.17 429.956 673.498 430.044C671.87 430.132 670.374 430.22 669.01 430.308C667.69 430.352 666.678 430.396 665.974 430.44C665.27 430.484 664.544 430.528 663.796 430.572C663.048 430.616 662.322 430.704 661.618 430.836L661.42 425.358ZM135.246 504.83C136.126 504.962 137.072 505.05 138.084 505.094C139.096 505.138 140.13 505.16 141.186 505.16C141.846 505.16 143.034 505.16 144.75 505.16C146.51 505.16 148.49 505.16 150.69 505.16C152.934 505.16 155.156 505.16 157.356 505.16C159.6 505.16 161.602 505.16 163.362 505.16C165.122 505.16 166.376 505.16 167.124 505.16C168.18 505.16 169.236 505.138 170.292 505.094C171.348 505.05 172.294 504.962 173.13 504.83V510.308C172.338 510.22 171.392 510.176 170.292 510.176C169.236 510.132 168.158 510.11 167.058 510.11C166.31 510.11 165.056 510.11 163.296 510.11C161.58 510.11 159.622 510.11 157.422 510.11C155.222 510.11 153 510.11 150.756 510.11C148.556 510.11 146.576 510.11 144.816 510.11C143.1 510.11 141.89 510.11 141.186 510.11C140.174 510.11 139.162 510.132 138.15 510.176C137.138 510.22 136.17 510.264 135.246 510.308V504.83ZM177.948 522.254C177.816 522.518 177.64 522.848 177.42 523.244C177.244 523.596 177.134 523.904 177.09 524.168C176.21 527.424 175 530.702 173.46 534.002C171.92 537.258 169.918 540.228 167.454 542.912C163.978 546.696 160.216 549.644 156.168 551.756C152.164 553.868 148.05 555.518 143.826 556.706L139.734 552.02C144.398 551.052 148.732 549.534 152.736 547.466C156.74 545.398 160.15 542.89 162.966 539.942C164.99 537.83 166.64 535.476 167.916 532.88C169.236 530.24 170.204 527.732 170.82 525.356C170.336 525.356 169.412 525.356 168.048 525.356C166.728 525.356 165.1 525.356 163.164 525.356C161.228 525.356 159.138 525.356 156.894 525.356C154.694 525.356 152.45 525.356 150.162 525.356C147.918 525.356 145.806 525.356 143.826 525.356C141.89 525.356 140.196 525.356 138.744 525.356C137.336 525.356 136.346 525.356 135.774 525.356C134.982 525.356 134.014 525.378 132.87 525.422C131.726 525.422 130.538 525.466 129.306 525.554V520.01C130.538 520.142 131.704 520.252 132.804 520.34C133.904 520.384 134.894 520.406 135.774 520.406C136.258 520.406 137.182 520.406 138.546 520.406C139.91 520.406 141.56 520.406 143.496 520.406C145.432 520.406 147.522 520.406 149.766 520.406C152.01 520.406 154.254 520.406 156.498 520.406C158.742 520.406 160.832 520.406 162.768 520.406C164.704 520.406 166.354 520.406 167.718 520.406C169.126 520.406 170.072 520.406 170.556 520.406C171.304 520.406 172.008 520.362 172.668 520.274C173.328 520.186 173.834 520.054 174.186 519.878L177.948 522.254ZM217.878 515.984C218.186 516.644 218.582 517.634 219.066 518.954C219.55 520.23 220.056 521.594 220.584 523.046C221.156 524.498 221.662 525.884 222.102 527.204C222.542 528.48 222.872 529.492 223.092 530.24L218.208 531.956C218.032 531.208 217.724 530.196 217.284 528.92C216.888 527.644 216.426 526.28 215.898 524.828C215.37 523.332 214.842 521.946 214.314 520.67C213.786 519.394 213.368 518.382 213.06 517.634L217.878 515.984ZM241.77 519.68C241.55 520.34 241.352 520.956 241.176 521.528C241.044 522.056 240.912 522.54 240.78 522.98C239.9 526.588 238.712 530.13 237.216 533.606C235.72 537.038 233.784 540.25 231.408 543.242C228.372 547.114 224.94 550.348 221.112 552.944C217.328 555.54 213.588 557.542 209.892 558.95L205.536 554.528C208.088 553.736 210.662 552.68 213.258 551.36C215.898 550.04 218.384 548.456 220.716 546.608C223.092 544.76 225.182 542.714 226.986 540.47C228.57 538.534 229.978 536.356 231.21 533.936C232.486 531.516 233.542 528.942 234.378 526.214C235.214 523.486 235.786 520.714 236.094 517.898L241.77 519.68ZM202.566 519.284C202.918 520.032 203.358 521.044 203.886 522.32C204.414 523.596 204.964 525.004 205.536 526.544C206.152 528.04 206.724 529.492 207.252 530.9C207.824 532.264 208.264 533.364 208.572 534.2L203.556 536.048C203.292 535.212 202.896 534.09 202.368 532.682C201.884 531.23 201.334 529.734 200.718 528.194C200.102 526.654 199.508 525.246 198.936 523.97C198.408 522.694 197.99 521.77 197.682 521.198L202.566 519.284ZM277.872 507.338C277.696 506.502 277.498 505.71 277.278 504.962C277.102 504.214 276.882 503.51 276.618 502.85L282.558 501.794C282.602 502.41 282.69 503.158 282.822 504.038C282.954 504.874 283.064 505.644 283.152 506.348C283.24 506.788 283.438 507.822 283.746 509.45C284.054 511.034 284.428 513.036 284.868 515.456C285.352 517.876 285.88 520.494 286.452 523.31C287.024 526.126 287.596 528.964 288.168 531.824C288.74 534.684 289.268 537.368 289.752 539.876C290.236 542.384 290.654 544.518 291.006 546.278C291.402 548.038 291.666 549.226 291.798 549.842C292.018 550.81 292.26 551.822 292.524 552.878C292.788 553.934 293.074 554.924 293.382 555.848L287.376 556.97C287.2 555.87 287.046 554.814 286.914 553.802C286.782 552.746 286.606 551.734 286.386 550.766C286.298 550.194 286.078 549.05 285.726 547.334C285.418 545.574 285.022 543.462 284.538 540.998C284.054 538.534 283.526 535.894 282.954 533.078C282.382 530.218 281.81 527.38 281.238 524.564C280.71 521.748 280.204 519.13 279.72 516.71C279.236 514.29 278.818 512.244 278.466 510.572C278.158 508.9 277.96 507.822 277.872 507.338ZM259.26 516.842C260.052 516.798 260.888 516.754 261.768 516.71C262.692 516.622 263.682 516.512 264.738 516.38C265.75 516.248 267.158 516.072 268.962 515.852C270.766 515.588 272.79 515.302 275.034 514.994C277.322 514.642 279.676 514.268 282.096 513.872C284.56 513.476 286.936 513.102 289.224 512.75C291.512 512.354 293.58 512.002 295.428 511.694C297.276 511.386 298.728 511.122 299.784 510.902C300.752 510.726 301.632 510.55 302.424 510.374C303.26 510.154 303.942 509.956 304.47 509.78L305.592 515.39C305.108 515.434 304.404 515.522 303.48 515.654C302.6 515.742 301.72 515.852 300.84 515.984C299.696 516.16 298.178 516.402 296.286 516.71C294.394 517.018 292.282 517.37 289.95 517.766C287.662 518.118 285.308 518.492 282.888 518.888C280.468 519.24 278.114 519.614 275.826 520.01C273.582 520.362 271.58 520.692 269.82 521C268.06 521.264 266.696 521.484 265.728 521.66C264.804 521.792 263.924 521.946 263.088 522.122C262.296 522.298 261.394 522.518 260.382 522.782L259.26 516.842ZM259.062 535.916C259.854 535.872 260.8 535.806 261.9 535.718C263 535.586 263.99 535.454 264.87 535.322C266.058 535.19 267.642 534.97 269.622 534.662C271.646 534.354 273.912 534.002 276.42 533.606C278.972 533.166 281.59 532.726 284.274 532.286C287.002 531.846 289.642 531.406 292.194 530.966C294.746 530.526 297.078 530.13 299.19 529.778C301.346 529.382 303.062 529.074 304.338 528.854C305.614 528.634 306.736 528.414 307.704 528.194C308.672 527.974 309.508 527.776 310.212 527.6L311.268 533.144C310.608 533.188 309.75 533.298 308.694 533.474C307.682 533.606 306.56 533.782 305.328 534.002C303.876 534.222 302.05 534.508 299.85 534.86C297.694 535.212 295.34 535.608 292.788 536.048C290.236 536.444 287.618 536.862 284.934 537.302C282.294 537.698 279.742 538.116 277.278 538.556C274.814 538.952 272.614 539.326 270.678 539.678C268.742 539.986 267.202 540.25 266.058 540.47C264.782 540.69 263.66 540.888 262.692 541.064C261.768 541.24 260.954 541.438 260.25 541.658L259.062 535.916ZM324.732 525.422C325.392 525.466 326.206 525.532 327.174 525.62C328.142 525.664 329.198 525.708 330.342 525.752C331.53 525.752 332.718 525.752 333.906 525.752C334.61 525.752 335.688 525.752 337.14 525.752C338.636 525.752 340.374 525.752 342.354 525.752C344.334 525.752 346.424 525.752 348.624 525.752C350.868 525.752 353.09 525.752 355.29 525.752C357.534 525.752 359.646 525.752 361.626 525.752C363.65 525.752 365.388 525.752 366.84 525.752C368.292 525.752 369.37 525.752 370.074 525.752C371.746 525.752 373.176 525.708 374.364 525.62C375.552 525.532 376.498 525.466 377.202 525.422V531.89C376.542 531.846 375.552 531.78 374.232 531.692C372.956 531.604 371.592 531.56 370.14 531.56C369.436 531.56 368.336 531.56 366.84 531.56C365.344 531.56 363.606 531.56 361.626 531.56C359.69 531.56 357.6 531.56 355.356 531.56C353.112 531.56 350.868 531.56 348.624 531.56C346.424 531.56 344.334 531.56 342.354 531.56C340.418 531.56 338.702 531.56 337.206 531.56C335.71 531.56 334.61 531.56 333.906 531.56C332.102 531.56 330.386 531.604 328.758 531.692C327.13 531.736 325.788 531.802 324.732 531.89V525.422ZM390.402 512.354C391.634 512.53 392.932 512.662 394.296 512.75C395.66 512.794 397.046 512.816 398.454 512.816C400.874 512.816 403.36 512.706 405.912 512.486C408.508 512.266 411.126 511.914 413.766 511.43C416.406 510.902 419.002 510.22 421.554 509.384L421.686 514.334C419.53 514.906 417.154 515.434 414.558 515.918C412.006 516.402 409.344 516.798 406.572 517.106C403.844 517.37 401.138 517.502 398.454 517.502C397.266 517.502 395.99 517.502 394.626 517.502C393.306 517.458 392.008 517.392 390.732 517.304L390.402 512.354ZM413.766 501.596C413.502 502.652 413.172 503.994 412.776 505.622C412.38 507.25 411.94 508.966 411.456 510.77C411.016 512.53 410.532 514.202 410.004 515.786C408.948 518.954 407.606 522.298 405.978 525.818C404.35 529.294 402.612 532.682 400.764 535.982C398.916 539.282 397.09 542.164 395.286 544.628L390.204 541.988C391.656 540.272 393.108 538.314 394.56 536.114C396.056 533.914 397.442 531.604 398.718 529.184C400.038 526.764 401.226 524.388 402.282 522.056C403.338 519.724 404.218 517.59 404.922 515.654C405.626 513.542 406.286 511.166 406.902 508.526C407.518 505.842 407.87 503.356 407.958 501.068L413.766 501.596ZM429.342 521.99C429.298 523.354 429.254 524.586 429.21 525.686C429.21 526.742 429.232 527.886 429.276 529.118C429.32 530.174 429.364 531.538 429.408 533.21C429.496 534.838 429.584 536.576 429.672 538.424C429.76 540.228 429.826 541.966 429.87 543.638C429.958 545.31 430.002 546.696 430.002 547.796C430.002 549.556 429.606 551.162 428.814 552.614C428.022 554.066 426.768 555.21 425.052 556.046C423.38 556.926 421.18 557.366 418.452 557.366C416.032 557.366 413.832 557.014 411.852 556.31C409.872 555.65 408.266 554.616 407.034 553.208C405.846 551.8 405.252 550.018 405.252 547.862C405.252 545.794 405.824 544.034 406.968 542.582C408.156 541.086 409.74 539.942 411.72 539.15C413.744 538.358 415.988 537.962 418.452 537.962C422.148 537.962 425.536 538.49 428.616 539.546C431.74 540.558 434.534 541.856 436.998 543.44C439.506 545.024 441.662 546.586 443.466 548.126L440.628 552.614C439.352 551.47 437.922 550.282 436.338 549.05C434.798 547.818 433.082 546.696 431.19 545.684C429.298 544.628 427.274 543.77 425.118 543.11C422.962 542.45 420.674 542.12 418.254 542.12C415.834 542.12 413.876 542.626 412.38 543.638C410.884 544.65 410.136 545.904 410.136 547.4C410.136 548.94 410.774 550.194 412.05 551.162C413.326 552.13 415.24 552.614 417.792 552.614C419.64 552.614 421.092 552.328 422.148 551.756C423.204 551.14 423.952 550.348 424.392 549.38C424.876 548.368 425.118 547.268 425.118 546.08C425.118 544.848 425.074 543.242 424.986 541.262C424.942 539.282 424.854 537.17 424.722 534.926C424.634 532.638 424.524 530.372 424.392 528.128C424.304 525.84 424.238 523.794 424.194 521.99H429.342ZM442.542 523.772C441.354 522.716 439.858 521.616 438.054 520.472C436.25 519.328 434.38 518.25 432.444 517.238C430.552 516.182 428.88 515.324 427.428 514.664L430.134 510.638C431.322 511.166 432.642 511.804 434.094 512.552C435.546 513.3 436.998 514.092 438.45 514.928C439.902 515.764 441.244 516.578 442.476 517.37C443.752 518.118 444.764 518.8 445.512 519.416L442.542 523.772ZM465.708 552.218H500.622V556.442H465.708V552.218ZM463.794 529.316H502.272V533.474H463.794V529.316ZM463.794 520.34H502.272V524.432H463.794V520.34ZM453.564 511.166H512.766V515.456H453.564V511.166ZM464.784 502.19H501.348V506.282H464.784V502.19ZM463.002 538.49H503.13V559.016H498.114V542.714H467.886V559.214H463.002V538.49ZM519.63 502.982H578.502V507.008H519.63V502.982ZM519.63 515.852H578.436V519.878H519.63V515.852ZM535.206 498.56H540.09V512.024H535.206V498.56ZM557.712 498.56H562.596V512.288H557.712V498.56ZM519.498 540.668H578.7V544.628H519.498V540.668ZM546.426 535.124H551.31V559.28H546.426V535.124ZM544.71 542.648L548.406 544.43C546.822 545.97 544.974 547.444 542.862 548.852C540.75 550.26 538.462 551.558 535.998 552.746C533.578 553.934 531.092 555.012 528.54 555.98C525.988 556.948 523.546 557.74 521.214 558.356C520.95 557.96 520.642 557.498 520.29 556.97C519.938 556.486 519.564 556.002 519.168 555.518C518.816 555.078 518.442 554.682 518.046 554.33C520.422 553.846 522.864 553.208 525.372 552.416C527.924 551.624 530.388 550.722 532.764 549.71C535.184 548.654 537.406 547.532 539.43 546.344C541.498 545.112 543.258 543.88 544.71 542.648ZM553.158 542.318C555.006 544.166 557.36 545.882 560.22 547.466C563.124 549.05 566.292 550.436 569.724 551.624C573.156 552.768 576.566 553.648 579.954 554.264C579.602 554.616 579.206 555.034 578.766 555.518C578.37 556.046 577.996 556.574 577.644 557.102C577.292 557.63 576.984 558.114 576.72 558.554C574.168 557.938 571.594 557.146 568.998 556.178C566.446 555.254 563.96 554.154 561.54 552.878C559.12 551.602 556.876 550.216 554.808 548.72C552.74 547.18 550.936 545.574 549.396 543.902L553.158 542.318ZM528.606 511.034H533.49V531.758H576.39V535.784H528.606V511.034ZM544.512 510.44H549.264V524.696H562.992V510.968H567.876V527.93H544.512V510.44ZM609.984 502.718C609.896 503.334 609.786 503.994 609.654 504.698C609.522 505.358 609.39 506.018 609.258 506.678C609.082 507.426 608.884 508.482 608.664 509.846C608.444 511.21 608.18 512.662 607.872 514.202C607.608 515.698 607.322 517.15 607.014 518.558C606.53 520.406 605.958 522.518 605.298 524.894C604.682 527.226 603.934 529.734 603.054 532.418C602.218 535.058 601.272 537.764 600.216 540.536C599.16 543.264 597.994 545.97 596.718 548.654C595.442 551.338 594.056 553.89 592.56 556.31L587.214 554.132C588.71 552.152 590.118 549.908 591.438 547.4C592.758 544.892 593.968 542.296 595.068 539.612C596.168 536.884 597.158 534.2 598.038 531.56C598.918 528.92 599.666 526.478 600.282 524.234C600.942 521.946 601.448 519.988 601.8 518.36C602.416 515.764 602.922 513.036 603.318 510.176C603.714 507.316 603.912 504.632 603.912 502.124L609.984 502.718ZM632.688 510.374C633.744 511.694 634.844 513.366 635.988 515.39C637.176 517.414 638.32 519.548 639.42 521.792C640.564 524.036 641.598 526.214 642.522 528.326C643.49 530.438 644.238 532.264 644.766 533.804L639.684 536.246C639.2 534.53 638.518 532.594 637.638 530.438C636.802 528.282 635.834 526.104 634.734 523.904C633.678 521.66 632.556 519.548 631.368 517.568C630.224 515.544 629.058 513.872 627.87 512.552L632.688 510.374ZM586.224 517.238C587.28 517.282 588.27 517.304 589.194 517.304C590.118 517.304 591.108 517.282 592.164 517.238C593.132 517.194 594.386 517.128 595.926 517.04C597.51 516.908 599.204 516.776 601.008 516.644C602.812 516.468 604.616 516.314 606.42 516.182C608.224 516.006 609.874 515.874 611.37 515.786C612.866 515.654 614.054 515.588 614.934 515.588C616.914 515.588 618.696 515.918 620.28 516.578C621.908 517.194 623.206 518.316 624.174 519.944C625.186 521.528 625.692 523.816 625.692 526.808C625.692 529.404 625.56 532.22 625.296 535.256C625.032 538.248 624.614 541.108 624.042 543.836C623.514 546.52 622.788 548.786 621.864 550.634C620.852 552.834 619.532 554.286 617.904 554.99C616.276 555.738 614.384 556.112 612.228 556.112C610.952 556.112 609.588 556.002 608.136 555.782C606.728 555.606 605.496 555.408 604.44 555.188L603.582 549.644C604.506 549.952 605.474 550.216 606.486 550.436C607.498 550.612 608.466 550.766 609.39 550.898C610.314 550.986 611.062 551.03 611.634 551.03C612.866 551.03 613.966 550.832 614.934 550.436C615.902 549.996 616.738 549.05 617.442 547.598C618.146 546.102 618.718 544.232 619.158 541.988C619.642 539.744 619.994 537.346 620.214 534.794C620.434 532.242 620.544 529.778 620.544 527.402C620.544 525.378 620.258 523.86 619.686 522.848C619.114 521.836 618.3 521.154 617.244 520.802C616.188 520.45 614.956 520.274 613.548 520.274C612.448 520.274 610.952 520.362 609.06 520.538C607.168 520.67 605.144 520.846 602.988 521.066C600.832 521.242 598.83 521.44 596.982 521.66C595.178 521.88 593.77 522.034 592.758 522.122C591.966 522.21 590.976 522.342 589.788 522.518C588.644 522.65 587.654 522.782 586.818 522.914L586.224 517.238ZM633.48 500.804C634.052 501.552 634.646 502.476 635.262 503.576C635.922 504.632 636.582 505.732 637.242 506.876C637.902 507.976 638.452 508.966 638.892 509.846L635.262 511.43C634.866 510.55 634.36 509.56 633.744 508.46C633.128 507.36 632.49 506.26 631.83 505.16C631.17 504.06 630.532 503.092 629.916 502.256L633.48 500.804ZM640.74 498.098C641.312 498.934 641.95 499.902 642.654 501.002C643.358 502.102 644.04 503.202 644.7 504.302C645.36 505.358 645.888 506.304 646.284 507.14L642.72 508.724C642.016 507.272 641.158 505.71 640.146 504.038C639.134 502.322 638.166 500.848 637.242 499.616L640.74 498.098ZM667.602 528.458H694.926V532.682H667.602V528.458ZM664.698 552.812H697.698V557.168H664.698V552.812ZM680.868 518.162C678.932 520.494 676.49 522.87 673.542 525.29C670.638 527.666 667.404 529.954 663.84 532.154C660.276 534.31 656.602 536.18 652.818 537.764C652.554 537.192 652.136 536.532 651.564 535.784C651.036 535.036 650.53 534.376 650.046 533.804C653.962 532.264 657.702 530.416 661.266 528.26C664.874 526.104 668.13 523.772 671.034 521.264C673.982 518.756 676.38 516.27 678.228 513.806H683.046C685.51 516.578 688.326 519.196 691.494 521.66C694.706 524.08 698.094 526.236 701.658 528.128C705.266 530.02 708.786 531.538 712.218 532.682C711.646 533.254 711.096 533.958 710.568 534.794C710.04 535.586 709.578 536.29 709.182 536.906C705.838 535.586 702.384 533.936 698.82 531.956C695.3 529.976 691.978 527.798 688.854 525.422C685.73 523.046 683.068 520.626 680.868 518.162ZM661.992 538.424H700.404V559.082H695.454V542.714H666.744V559.28H661.992V538.424ZM658.956 504.236H679.614V508.526H658.956V504.236ZM683.904 504.236H710.568V508.526H683.904V504.236ZM660.408 497.57L665.16 498.758C664.28 501.178 663.246 503.554 662.058 505.886C660.87 508.174 659.594 510.33 658.23 512.354C656.91 514.334 655.524 516.094 654.072 517.634C653.808 517.37 653.412 517.062 652.884 516.71C652.4 516.358 651.872 516.028 651.3 515.72C650.772 515.368 650.31 515.082 649.914 514.862C652.114 512.75 654.116 510.154 655.92 507.074C657.768 503.994 659.264 500.826 660.408 497.57ZM686.082 497.57L690.9 498.758C689.756 502.014 688.216 505.094 686.28 507.998C684.344 510.902 682.276 513.366 680.076 515.39C679.812 515.082 679.416 514.752 678.888 514.4C678.404 514.048 677.898 513.696 677.37 513.344C676.842 512.948 676.358 512.64 675.918 512.42C678.118 510.66 680.098 508.482 681.858 505.886C683.662 503.246 685.07 500.474 686.082 497.57ZM662.388 507.404L666.612 506.216C667.58 507.712 668.526 509.362 669.45 511.166C670.418 512.97 671.122 514.554 671.562 515.918L667.14 517.436C666.744 516.072 666.106 514.444 665.226 512.552C664.346 510.66 663.4 508.944 662.388 507.404ZM690.174 507.47L694.53 506.018C695.718 507.426 696.906 509.054 698.094 510.902C699.282 512.706 700.162 514.29 700.734 515.654L696.114 517.304C695.63 515.984 694.816 514.4 693.672 512.552C692.528 510.66 691.362 508.966 690.174 507.47ZM734.592 501.926C736.396 502.322 738.464 502.718 740.796 503.114C743.128 503.466 745.526 503.818 747.99 504.17C750.454 504.478 752.786 504.742 754.986 504.962C757.23 505.138 759.122 505.292 760.662 505.424L759.936 510.308C758.308 510.176 756.394 509.978 754.194 509.714C752.038 509.45 749.772 509.164 747.396 508.856C745.02 508.548 742.644 508.218 740.268 507.866C737.936 507.47 735.758 507.096 733.734 506.744L734.592 501.926ZM761.982 520.802C761.366 521.242 760.706 521.748 760.002 522.32C759.298 522.892 758.748 523.376 758.352 523.772C757.692 524.344 756.79 525.158 755.646 526.214C754.546 527.226 753.358 528.348 752.082 529.58C750.85 530.768 749.662 531.89 748.518 532.946C747.418 534.002 746.56 534.86 745.944 535.52C746.296 535.476 746.714 535.476 747.198 535.52C747.726 535.52 748.166 535.564 748.518 535.652C749.794 535.784 750.828 536.268 751.62 537.104C752.456 537.94 753.094 539.04 753.534 540.404C753.754 541.02 753.974 541.768 754.194 542.648C754.458 543.528 754.722 544.43 754.986 545.354C755.25 546.234 755.492 547.048 755.712 547.796C756.152 549.028 756.79 549.93 757.626 550.502C758.462 551.074 759.738 551.36 761.454 551.36C762.95 551.36 764.446 551.316 765.942 551.228C767.482 551.096 768.934 550.92 770.298 550.7C771.706 550.48 772.916 550.26 773.928 550.04L773.598 555.584C772.674 555.716 771.464 555.848 769.968 555.98C768.472 556.156 766.932 556.288 765.348 556.376C763.808 556.508 762.422 556.574 761.19 556.574C758.55 556.574 756.394 556.178 754.722 555.386C753.094 554.594 751.928 553.12 751.224 550.964C751.004 550.304 750.74 549.49 750.432 548.522C750.168 547.51 749.904 546.52 749.64 545.552C749.42 544.584 749.2 543.792 748.98 543.176C748.584 542.032 748.034 541.174 747.33 540.602C746.67 539.986 745.878 539.678 744.954 539.678C744.03 539.678 743.172 539.898 742.38 540.338C741.588 540.734 740.818 541.306 740.07 542.054C739.586 542.538 738.926 543.198 738.09 544.034C737.254 544.826 736.33 545.772 735.318 546.872C734.35 547.928 733.338 549.05 732.282 550.238C731.226 551.382 730.214 552.526 729.246 553.67C728.278 554.77 727.42 555.804 726.672 556.772L721.656 553.274C722.052 552.922 722.536 552.504 723.108 552.02C723.68 551.492 724.296 550.92 724.956 550.304C725.396 549.864 726.21 549.05 727.398 547.862C728.586 546.63 730.016 545.178 731.688 543.506C733.404 541.834 735.208 540.052 737.1 538.16C738.992 536.224 740.884 534.332 742.776 532.484C744.668 530.592 746.406 528.832 747.99 527.204C749.618 525.576 750.982 524.212 752.082 523.112C751.07 523.156 749.838 523.244 748.386 523.376C746.934 523.464 745.416 523.574 743.832 523.706C742.248 523.838 740.686 523.97 739.146 524.102C737.606 524.234 736.176 524.344 734.856 524.432C733.58 524.52 732.546 524.608 731.754 524.696C730.654 524.784 729.664 524.894 728.784 525.026C727.948 525.114 727.156 525.224 726.408 525.356L725.946 519.548C726.694 519.592 727.552 519.636 728.52 519.68C729.488 519.724 730.5 519.724 731.556 519.68C732.304 519.68 733.448 519.636 734.988 519.548C736.528 519.46 738.266 519.35 740.202 519.218C742.182 519.086 744.162 518.954 746.142 518.822C748.122 518.646 749.948 518.492 751.62 518.36C753.336 518.228 754.678 518.096 755.646 517.964C756.218 517.876 756.812 517.766 757.428 517.634C758.044 517.502 758.506 517.37 758.814 517.238L761.982 520.802Z" fill="black"/>
</svg>
